<?xml version="1.0" standalone="no"?>
<!DOCTYPE svg PUBLIC "-//W3C//DTD SVG 1.1//EN" "http://www.w3.org/Graphics/SVG/1.1/DTD/svg11.dtd" >
<svg xmlns="http://www.w3.org/2000/svg">
<metadata>
Created by FontForge 20120731 at Thu Mar 23 21:25:10 2017
 By admin
</metadata>
<defs>
<font id="iconfont" horiz-adv-x="1024" >
  <font-face 
    font-family="iconfont"
    font-weight="500"
    font-stretch="normal"
    units-per-em="1024"
    panose-1="2 0 6 3 0 0 0 0 0 0"
    ascent="896"
    descent="-128"
    x-height="792"
    bbox="0 -212 1024 896"
    underline-thickness="0"
    underline-position="0"
    unicode-range="U+0078-EC86"
  />
<missing-glyph 
 />
    <glyph glyph-name=".notdef" 
 />
    <glyph glyph-name=".notdef" 
 />
    <glyph glyph-name=".null" horiz-adv-x="0" 
 />
    <glyph glyph-name="nonmarkingreturn" horiz-adv-x="341" 
 />
    <glyph glyph-name="x" unicode="x" horiz-adv-x="1001" 
d="M281 543q-27 -1 -53 -1h-83q-18 0 -36.5 -6t-32.5 -18.5t-23 -32t-9 -45.5v-76h912v41q0 16 -0.5 30t-0.5 18q0 13 -5 29t-17 29.5t-31.5 22.5t-49.5 9h-133v-97h-438v97zM955 310v-52q0 -23 0.5 -52t0.5 -58t-10.5 -47.5t-26 -30t-33 -16t-31.5 -4.5q-14 -1 -29.5 -0.5
t-29.5 0.5h-32l-45 128h-439l-44 -128h-29h-34q-20 0 -45 1q-25 0 -41 9.5t-25.5 23t-13.5 29.5t-4 30v167h911zM163 247q-12 0 -21 -8.5t-9 -21.5t9 -21.5t21 -8.5q13 0 22 8.5t9 21.5t-9 21.5t-22 8.5zM316 123q-8 -26 -14 -48q-5 -19 -10.5 -37t-7.5 -25t-3 -15t1 -14.5
t9.5 -10.5t21.5 -4h37h67h81h80h64h36q23 0 34 12t2 38q-5 13 -9.5 30.5t-9.5 34.5q-5 19 -11 39h-368zM336 498v228q0 11 2.5 23t10 21.5t20.5 15.5t34 6h188q31 0 51.5 -14.5t20.5 -52.5v-227h-327z" />
    <glyph glyph-name="map" unicode="&#xe60e;" 
d="M497 -139q-15 15 -38.5 41.5t-84.5 101t-107 141t-84 145.5t-38 131q0 91 47 168.5t128 122.5t176.5 45t176.5 -45t128.5 -122.5t47.5 -168.5q0 -52 -36.5 -129t-88 -149.5t-103.5 -137t-88 -105t-36 -39.5zM496.5 645q-97.5 0 -166 -66t-68.5 -158.5t68.5 -158
t166 -65.5t166 65.5t68.5 158t-68.5 158.5t-166 66z" />
    <glyph glyph-name="ditumap27" unicode="&#xe603;" 
d="M512 812q-93 0 -171.5 -45.5t-124 -124.5t-45.5 -171q0 -108 61.5 -195t159.5 -124l35 -104l85 -260l85 260l35 104q98 37 159.5 124t61.5 195q0 92 -45.5 171t-124 124.5t-171.5 45.5zM506.5 368q-42.5 0 -72.5 30t-30 72.5t30 72.5t72.5 30t72.5 -30t30 -72.5
t-30 -72.5t-72.5 -30z" />
    <glyph glyph-name="1map" unicode="&#xe623;" 
d="M63 319h465v-466l430 895zM63 319z" />
    <glyph glyph-name="iconzuduanxinximap" unicode="&#xe65e;" 
d="M508.5 676q-107.5 0 -183.5 -76t-76 -184t76 -184t183.5 -76t183.5 76t76 184t-76 184t-183.5 76zM681 363h-335q-13 0 -25 9.5t-12 21.5v30q0 13 12.5 23.5t24.5 10.5h335q12 0 23 -10.5t11 -23.5v-30q0 -12 -10.5 -21.5t-23.5 -9.5zM511 749q-91 0 -167.5 -44.5
t-121.5 -121.5t-45 -168q0 -79 34.5 -147.5t94.5 -115.5q112 -104 145 -149q17 -24 32 -62t20.5 -61t5.5 -26v1l1 -1q22 95 61 149q33 45 145 149q60 46 94.5 115t34.5 148q0 91 -45 168t-121.5 121.5t-167.5 44.5zM508.5 140q-114.5 0 -195 80.5t-80.5 195t80.5 195.5
t195 81t195 -81t80.5 -195.5t-80.5 -195t-195 -80.5z" />
    <glyph glyph-name="map4" unicode="&#xe6d2;" 
d="M512 811q-103 0 -187.5 -46t-134.5 -131.5t-50 -194.5q0 -64 19 -119t53 -98.5t68.5 -78.5t78 -78t69.5 -77q37 -51 58 -100.5t24 -73.5l2 -25q0 4 0.5 10.5t5 27t12.5 42.5t25 54.5t41 64.5q26 34 69 78t78 79.5t68.5 79.5t53 98t19.5 116q0 109 -50 194.5t-134.5 131.5
t-187.5 46zM511.5 117q-87.5 0 -161.5 43t-117 117t-43 161.5t43 162t117 117.5t161.5 43t162 -43t117.5 -117.5t43 -162t-43 -161.5t-117.5 -117t-162 -43zM512 711q-113 0 -193 -79.5t-80 -192.5t80 -193t193 -80t193 80t80 193t-80 192.5t-193 79.5z" />
    <glyph glyph-name="map2" unicode="&#xe6d4;" 
d="M512 812q-102 0 -186 -46t-133.5 -132t-49.5 -195q0 -64 19 -119t52.5 -98.5t68 -78.5t77.5 -78.5t68 -77.5q24 -32 41 -64.5t25 -54.5t12.5 -43t5 -27.5t0.5 -9.5q0 3 0.5 9.5t5 27.5t12.5 43t25 54.5t41 64.5q25 34 68 78t77.5 79.5t68 79.5t52.5 98.5t19 116.5
q0 109 -49.5 195t-133.5 132t-186 46zM512 116q-87 0 -160.5 43.5t-116.5 117.5t-43 162t43 162.5t116.5 117.5t160.5 43t160.5 -43t116.5 -117.5t43 -162.5t-43 -162t-116.5 -117.5t-160.5 -43.5z" />
    <glyph glyph-name="map10" unicode="&#xe6eb;" 
d="M512 838q-91 0 -174 -35.5t-143 -95.5t-95.5 -143t-35.5 -174t35.5 -174t95.5 -143t143 -95.5t174 -35.5t174 35.5t143 95.5t95.5 143t35.5 174t-35.5 174t-95.5 143t-143 95.5t-174 35.5zM512 6q-104 0 -192.5 51.5t-140 139.5t-51.5 192.5t51.5 193t140 140t192.5 51.5
t192.5 -51.5t140 -140t51.5 -193t-51.5 -192.5t-140 -139.5t-192.5 -51.5zM512 518q-53 0 -90.5 -37.5t-37.5 -90.5t37.5 -90.5t90.5 -37.5t90.5 37.5t37.5 90.5t-37.5 90.5t-90.5 37.5z" />
    <glyph glyph-name="map21" unicode="&#xe6c9;" 
d="M512 -128q-97 0 -187.5 11.5t-163.5 32.5t-117 55t-44 76q0 33 26 61t70 46.5t84 29.5t84 20l12 -64q-46 -8 -83 -19t-60.5 -21.5t-39 -21t-22 -18.5t-6.5 -13q0 -12 19.5 -26.5t58.5 -29.5t91 -27t125.5 -19.5t153 -7.5t152.5 7.5t125 19.5t91 27t58.5 29.5t19.5 26.5
q0 6 -5.5 13.5t-20.5 18t-38 20.5t-61 21t-86 20l12 64q264 -49 264 -157q0 -42 -44 -76t-117 -55t-163.5 -32.5t-187.5 -11.5zM535 30q-8 -12 -23 -12v0q-14 0 -22 12l-259 384q-48 76 -48 165q0 86 44 159t120 115.5t165 42.5t165 -42.5t120 -115.5t44 -159
q0 -89 -47 -164zM512 461q-53 0 -90.5 37.5t-37.5 90.5t37.5 90.5t90.5 37.5t90.5 -37.5t37.5 -90.5t-37.5 -90.5t-90.5 -37.5z" />
    <glyph glyph-name="mappin" unicode="&#xe7f3;" 
d="M512 890q-101 0 -185 -50t-132 -137t-48 -191q0 -159 256 -497q61 -81 109 -137q15 18 39.5 47.5t87.5 114t111 160t87.5 164.5t39.5 148q0 104 -48 191t-132 137t-185 50zM461 704z" />
    <glyph glyph-name="map-copy" unicode="&#xe600;" 
d="M400 566q0 21 8.5 40t24 34t36.5 23t43 8t42.5 -8t36.5 -23t24.5 -34t8.5 -39.5t-8.5 -40t-24.5 -34t-36.5 -22.5t-42.5 -8t-43 8t-36.5 22.5t-24 34t-8.5 39.5v0zM50 359zM512 835q-130 0 -221 -85t-91 -205q0 -45 32 -111.5t77.5 -129t92 -119t78 -90.5t32.5 -34
q12 13 33.5 35.5t75 87t95 122.5t75 126t33.5 113q0 120 -91.5 205t-220.5 85v0v0zM512 424q-65 0 -110.5 42.5t-45.5 102.5t45.5 102.5t110 42.5t110.5 -42.5t46 -102.5t-46 -102.5t-110 -42.5v0v0zM603 113l-27 -34q120 -4 199 -19.5t79 -35.5q0 -23 -100 -39t-242 -16
q-341 0 -341 55q0 20 72.5 34.5t184.5 19.5l-27 34q-146 -7 -240.5 -31.5t-94.5 -55.5q0 -90 446 -90q185 0 315.5 26.5t130.5 63.5q0 32 -100.5 57t-254.5 31v0zM603 113z" />
    <glyph glyph-name="fitness-map-fill" unicode="&#xe615;" 
d="M512 636q-32 0 -54.5 -22.5t-22.5 -54t22.5 -54.5t54.5 -23t54.5 23t22.5 54.5t-22.5 54t-54.5 22.5zM725 551q0 88 -62.5 150.5t-150.5 62.5t-150.5 -62.5t-62.5 -150.5q0 -109 90 -246q52 -80 123 -152q29 30 58 66t68 92.5t63 120t24 119.5zM383 559.5q0 53.5 38 91
t91 37.5t91 -37.5t38 -91t-38 -91.5t-91 -38t-91 38t-38 91.5zM641 559.5q0 53.5 -38 91t-91 37.5t-91 -37.5t-38 -91t38 -91.5t91 -38t91 38t38 91.5zM589 559.5q0 -31.5 -22.5 -54.5t-54.5 -23t-54.5 23t-22.5 54.5t22.5 54t54.5 22.5t54.5 -22.5t22.5 -54zM367 244
q62 -86 127 -147l18 -17l18 17q12 12 30.5 31t60 71t73.5 103t57.5 120t25.5 129q0 110 -77.5 187.5t-187.5 77.5t-187.5 -77.5t-77.5 -187.5q0 -76 37 -163q30 -70 83 -144zM299 551q0 88 62.5 150.5t150.5 62.5t150.5 -62.5t62.5 -150.5q0 -56 -24 -119.5t-63 -120
t-68 -92.5t-58 -66q-71 72 -123 152q-90 137 -90 246zM952 105l-1 -1q-10 48 -97 80q-61 23 -150 36h-3q-10 0 -17.5 -6.5t-8.5 -15.5q-2 -11 4.5 -19.5t17.5 -10.5q102 -14 160 -41q16 -7 26 -14.5t13.5 -12.5t3.5 -8q0 -11 -24 -25q-28 -17 -78 -31q-119 -32 -286 -32
t-286 32q-50 14 -78 31q-24 14 -24 25q0 3 3 8t13.5 12.5t26.5 14.5q57 26 158 41q11 1 17.5 10t4.5 19q-1 10 -8.5 16.5t-17.5 6.5q-2 0 -3 -1q-88 -12 -149 -35q-97 -37 -97 -92q0 -67 140 -106q124 -34 300 -34t300 34q140 39 140 106v13v0z" />
    <glyph glyph-name="map1" unicode="&#xe686;" 
d="M513 -104h-1q-27 0 -45 19q-90 94 -176 210q-169 227 -169 357q0 106 52.5 195.5t142 142t195.5 52.5t195.5 -52.5t142 -142t52.5 -195.5q0 -78 -60 -190q-58 -107 -171 -246v-1l-112 -128q-19 -21 -46 -21zM512 813q-90 0 -166 -44t-120.5 -120.5t-44.5 -166.5
q0 -110 157 -322q82 -110 171 -204q2 -1 3 -1h1q1 0 2 1l111 128q109 134 164 236q53 98 53 162q0 90 -44.5 166.5t-120.5 120.5t-166 44zM512 300q-75 0 -128.5 53.5t-53.5 129t53.5 129t128.5 53.5t128.5 -53.5t53.5 -129t-53.5 -129t-128.5 -53.5zM512 606
q-51 0 -87.5 -36.5t-36.5 -87.5t36.5 -87t87.5 -36t87.5 36t36.5 87t-36.5 87.5t-87.5 36.5v0z" />
    <glyph glyph-name="map3" unicode="&#xe760;" 
d="M512 880q-64 0 -125 -21.5t-107 -58.5t-79 -88t-41 -110t8 -123q18 -67 60.5 -137.5t89 -121.5t93.5 -94t74 -63.5t29 -21.5q12 8 31 22.5t70.5 61.5t94 95.5t86 119t62.5 138.5q15 64 7 123t-40.5 110t-79 88.5t-107.5 59t-126 21.5v0v0zM790 486q-15 -55 -50 -112
t-69.5 -95.5t-75.5 -75.5t-56.5 -49t-24.5 -18v0q-9 6 -24.5 18t-57.5 49.5t-77 76.5t-70 96.5t-49 111.5q-18 65 -0.5 123t56.5 101.5t97.5 68.5t123 25t123.5 -25.5t98 -69.5t56.5 -102t-0.5 -123v0v0zM513 669q-64 0 -108.5 -41.5t-44.5 -101.5t45 -104t107.5 -44
t107.5 44t45 104q0 59 -44.5 101t-107.5 42v0zM513 436q-37 0 -63.5 27.5t-26.5 62.5t26 60t63.5 25t64 -25t26.5 -60t-26.5 -62.5t-63.5 -27.5zM710 125q75 -13 114.5 -34.5t34.5 -46.5q-7 -28 -106.5 -54t-240.5 -26q-143 0 -241.5 25t-104.5 55q-4 25 34.5 46t111.5 34
l-34 45q-91 -18 -138 -51t-47 -74q0 -40 56 -73t153 -52.5t211 -19.5t210.5 19.5t153 52.5t56.5 73q0 41 -48 74t-140 51z" />
    <glyph glyph-name="basic-map" unicode="&#xe637;" 
d="M523.5 745q-56.5 0 -96 -40t-39.5 -96q0 -39 44 -113q26 -44 63 -93q11 -15 29 -15v0q18 0 28 15q37 49 64 93q44 74 44 113q0 56 -40 96t-96.5 40zM524 441q-42 56 -66.5 101.5t-24.5 66.5q0 38 26.5 64t64 26t64 -26t26.5 -64q0 -21 -24.5 -66.5t-65.5 -101.5zM524 670
q-25 0 -43 -18t-18 -43t18 -42.5t43 -17.5t42.5 17.5t17.5 42.5t-17.5 43t-42.5 18zM523.5 594q-6.5 0 -10.5 4.5t-4 10.5t4 10.5t10.5 4.5t10.5 -4.5t4 -10.5t-4 -10.5t-10.5 -4.5zM419 114l-206 -69q-6 -2 -12 -2q-12 0 -21 7q-16 11 -16 30v439q0 12 7 21.5t18 13.5
l147 48q2 -31 19 -70l-117 -40v-362l146 49v296q1 -2 3 -5q28 -47 66 -98q2 -3 4 -5v-190l110 -44v215q16 9 27 24q25 33 46 66v-308l146 49v362l-106 -35q26 50 30 87l101 34q18 6 33.5 -5t15.5 -30v-439q0 -12 -7 -21.5t-18 -13.5l-216 -72q-7 -3 -16 -3q-7 0 -13 2z" />
    <glyph glyph-name="map5" unicode="&#xe61b;" 
d="M512 -65q-7 6 -20 16.5t-49.5 44t-69.5 69t-73.5 87.5t-69.5 102.5t-49 111t-20 116.5q0 95 47 176t128 128t176 47t176 -47t128 -128t47 -176q0 -57 -20 -117.5t-49 -111t-69.5 -102.5t-73.5 -87t-69.5 -68.5t-49.5 -44t-20 -16.5v0v0zM512 755q-113 0 -193 -80
t-80 -193q0 -56 28.5 -121.5t67.5 -120t80.5 -102t68 -73t28.5 -26.5q11 10 29.5 28t65.5 71.5t83 104.5t65.5 117.5t29.5 121.5q0 113 -80 193t-193 80v0zM512 364q-49 0 -83 34.5t-34 83t34 83t83 34.5t83 -34.5t34 -83t-34.5 -83t-82.5 -34.5v0zM512 521
q-16 0 -27.5 -11.5t-11.5 -28t11.5 -27.5t27.5 -11t27.5 11t11.5 27.5t-11.5 28t-27.5 11.5v0zM512 521z" />
    <glyph glyph-name="map6" unicode="&#xe606;" 
d="M306 573.5q0 84.5 60.5 144.5t145.5 60t145.5 -60t60.5 -144.5t-60.5 -144.5t-145.5 -60t-145.5 60t-60.5 144.5zM162 548q0 -38 26 -104t52 -115.5t26 -46.5l246 -410l232 410q4 7 12 20t28.5 48.5t36.5 67.5t28.5 69t12.5 61q0 94 -46.5 174.5t-127.5 127t-176 46.5
t-176 -46.5t-127.5 -127t-46.5 -174.5z" />
    <glyph glyph-name="map7" unicode="&#xe604;" 
d="M512 -128q-16 17 -41.5 47.5t-92 115.5t-117 161.5t-92 166.5t-41.5 149q0 159 112.5 271.5t271.5 112.5t271.5 -112.5t112.5 -271.5q0 -59 -41.5 -149t-92 -166.5t-116.5 -161.5t-92.5 -115.5t-41.5 -47.5v0zM512 768q-106 0 -181 -75t-75 -181t75 -181t181 -75t181 75
t75 181t-75 181t-181 75z" />
    <glyph glyph-name="map8" unicode="&#xe679;" 
d="M387 496q0 -51 37.5 -88t89 -36.5t88.5 37t37 87.5t-37 87.5t-89 36.5t-89 -36.5t-37 -87.5v0zM512 -51q-28 38 -86.5 114.5t-102.5 136.5t-82 116q-40 59 -52.5 125.5t3.5 127t51.5 113t93 88t126.5 45.5q76 12 147 -10t122.5 -68t81 -113.5t26.5 -143.5
q-3 -95 -61 -173q-30 -41 -255 -343l-12 -15v0zM512 -51z" />
    <glyph glyph-name="icon_map-end" unicode="&#xe624;" 
d="M512 832q-105 0 -194 -51.5t-140.5 -140.5t-51.5 -194q0 -75 21 -143.5t55 -118t75.5 -92.5t82.5 -70.5t75 -47.5t55.5 -28.5l21.5 -8.5q8 3 22 9t54 28t76.5 48t81 70t76.5 93t54 117.5t22 143.5q0 105 -52 194t-140.5 140.5t-193.5 51.5zM514 148q-124 0 -212 88
t-88 212t88 212t212 88t212 -88t88 -212t-88 -212t-212 -88zM680 410q-68 18 -102 40q-37 -22 -110 -44q-5 17 -14 35q55 12 93 32q-22 20 -39 48q-12 -16 -30 -33l-13 26q-36 -57 -73 -105l62 6v-3q-3 -13 -3 -31q-66 -6 -97 -10l-11 32l1 2q15 11 22 21.5t20 30.5
q8 11 12 18q-30 -2 -52 -5l-11 32q12 10 18 24q27 46 49 96l38 -13q-10 -17 -27 -47q-24 -40 -35 -57l41 2q3 5 7 13q8 14 13 20l29 -14q43 45 60 94l39 -5q-9 -15 -16 -31h120v-34q-31 -54 -61 -77q33 -19 81 -28q-1 -1 -3 -5q-6 -19 -8 -30zM343 291l-6 33q32 4 119 16
q-1 -17 -1 -33q-62 -8 -112 -16zM650 273q-119 31 -176 40l12 35q39 -8 116 -27q40 -8 59 -11zM636 349q-51 16 -126 32l11 34q36 -8 93 -21l34 -8zM629 550h-100q21 -34 49 -58q32 25 51 58z" />
    <glyph glyph-name="icon_map-bin" unicode="&#xe625;" 
d="M512 832q-105 0 -194 -51.5t-140.5 -140.5t-51.5 -194q0 -75 21 -143.5t55 -118t75.5 -92.5t82.5 -70.5t75 -47.5t55.5 -28.5l21.5 -8.5q8 3 22 9t54 28t76.5 48t81 70t76.5 93t54 117.5t22 143.5q0 105 -52 194t-140.5 140.5t-193.5 51.5zM514 148q-124 0 -212 88
t-88 212t88 212t212 88t212 -88t88 -212t-88 -212t-212 -88zM354 541v31h57v46h35v-46h54v-31h-54v-45h64v-32h-49v-51h45v-31h-45v-59q22 -4 52 -4h173q-7 -17 -10 -33q-109 0 -167 2q-94 -2 -121 51q-7 -31 -23 -61q-3 3 -12.5 11t-14.5 13q29 44 26 142l33 -3
q0 -31 -2 -58q13 -30 30 -43v124h-83v32h69v45h-57zM577 349q-52 -2 -51 48v109h100v59h-106v35h141v-130h-98v-64q-1 -24 23 -23h30q24 -1 27 20q3 10 6 34v6q16 -6 34 -10q-3 -22 -7 -43q-8 -44 -54 -41h-45z" />
    <glyph glyph-name="amy-map-pin" unicode="&#xec86;" 
d="M483 274q38 0 73 9v-374q0 -15 -11 -26t-25 -11h-74q-14 0 -25 11t-11 26v374q35 -9 73 -9zM483 896q121 0 207 -85.5t86 -207t-86 -207t-207 -85.5t-207 85.5t-86 207t86 207t207 85.5zM483 768q8 0 13 5t5 13t-5 13.5t-13 5.5q-83 0 -142 -59t-59 -143q0 -8 5 -13
t13 -5t13 5t5 13q0 68 48.5 116.5t116.5 48.5z" />
    <glyph glyph-name="map9" unicode="&#xe622;" 
d="M512 -128q-16 17 -41.5 47.5t-92 115.5t-117 161.5t-92 166.5t-41.5 149q0 159 112.5 271.5t271.5 112.5t271.5 -112.5t112.5 -271.5q0 -59 -41.5 -149t-92 -166.5t-116.5 -161.5t-92.5 -115.5t-41.5 -47.5v0zM512 768q-106 0 -181 -75t-75 -181t75 -181t181 -75t181 75
t75 181t-75 181t-181 75z" />
    <glyph glyph-name="map-pin" unicode="&#xe60f;" 
d="M123 504q0 107 51 197t139 142.5t194 52.5t196.5 -52.5t143.5 -143t53 -196.5q0 -61 -40.5 -148t-98 -169t-115.5 -154t-98.5 -117t-40.5 -44q-8 9 -22 24.5t-53.5 62.5t-76 94t-80.5 111t-76 120.5t-54 116t-22 103.5v0z" />
    <glyph glyph-name="map11" unicode="&#xe62a;" 
d="M806 531q0 120 -84 204t-204 84h-12q-120 0 -204 -84t-84 -204q0 -64 22 -114t74 -97q-6 4 -1 -2q3 -4 15 -19q117 -137 139 -209q26 -103 26 -122t19 -19t19 19q0 11 6.5 41.5t13 55.5l6.5 25q27 87 154 224h-1q96 87 96 217z" />
  </font>
</defs>
</svg>
